:SAMPLES-PER-SECOND 30
:FULLY-SPECIFIED
:DEGREES
58
root  29.0266 38.548 8.00296 -11.5359 -74.9108 8.85249
RightUpLeg  3.8412 -15.8042 -21.2017
RightLeg  6.76881 4.96024 -0.721108
RightFoot  -1.96152 -1.1347 13.6039
RightToes  -1.33073e-015 0 -3.6325e-017
Spine  10.7124 -0.886164 1.71719
Spine1  4.69083 -0.132639 -2.8819
HEad  -11.8501 -7.77815 -0.762366
LeftShoulder1  -0.225552 4.11006 -30.9856
LeftArm  -10.9786 13.8695 -42.9441
LeftForeArm  25.8113 -3.61387 -4.70396
LeftHand  -0.0252766 5.20878 1.04178
RightShoulder  -0.564629 -5.29623 24.7322
RightArm  4.05853 -1.25527 43.3983
RightForeArm  10.4163 17.307 3.50618
RightHand  -0.301139 3.14869 -4.33914
LeftUpLeg  -7.70179 10.3693 9.07689
LeftLeg  17.5199 3.22588 1.45206
LeftFoot  -4.62375 0.4037 -6.46833
LeftToes  -1.03319e-009 7.52634e-011 -3.26162e-012
59
root  29.2172 38.4151 8.99427 -16.1349 -73.1844 12.9096
RightUpLeg  4.23858 -16.0965 -24.4328
RightLeg  8.36317 3.13245 -1.2493
RightFoot  -0.758692 -1.33654 14.2921
RightToes  -1.33073e-015 0 -3.6325e-017
Spine  11.6975 -1.15968 -0.452359
Spine1  4.48092 -0.591806 -3.24477
HEad  -12.0449 -8.62623 -0.612794
LeftShoulder1  -0.0519159 3.64846 -30.0485
LeftArm  -9.94357 8.59871 -42.7063
LeftForeArm  27.3228 -2.51788 -5.19544
LeftHand  -0.0230491 4.55494 -0.176781
RightShoulder  -0.514486 -5.15105 24.4298
RightArm  0.0474146 -1.49691 42.8683
RightForeArm  9.90438 18.6931 3.30025
RightHand  -0.351725 2.89113 -5.14996
LeftUpLeg  -8.09475 9.1149 5.94406
LeftLeg  19.6036 2.9718 1.50876
LeftFoot  -6.43452 0.315101 -6.41347
LeftToes  -1.03319e-009 7.52634e-011 -3.26162e-012
60
root  29.3598 38.44 9.97771 -17.6274 -72.8378 14.0485
RightUpLeg  2.86839 -13.8008 -25.4875
RightLeg  11.4933 -3.7233 -2.46706
RightFoot  2.51009 -1.47874 12.403
RightToes  -1.33073e-015 0 -3.6325e-017
Spine  11.5072 -0.912947 -0.526837
Spine1  5.1785 -0.152723 -4.55164
HEad  -11.9397 -9.97621 -0.732217
LeftShoulder1  0.0207116 3.4449 -30.346
LeftArm  -8.76057 2.08265 -41.82
LeftForeArm  28.4918 -1.37742 -5.88874
LeftHand  -0.0212574 4.63613 0.376482
RightShoulder  -0.486362 -5.08128 23.9689
RightArm  -2.63376 -1.63692 42.6553
RightForeArm  9.31502 19.4105 3.32377
RightHand  -0.391449 3.77685 -5.2127
LeftUpLeg  -7.75855 9.10138 3.9067
LeftLeg  20.4031 3.08897 1.60808
LeftFoot  -7.83381 0.20062 -5.02543
LeftToes  -1.03319e-009 7.52634e-011 -3.26162e-012
61
root  29.5104 38.4967 10.8783 -18.065 -72.3166 14.1088
RightUpLeg  0.150684 -10.8722 -25.6538
RightLeg  17.3105 -12.4089 -4.65048
RightFoot  6.15549 -1.22484 8.18221
RightToes  -1.33073e-015 0 -3.6325e-017
Spine  11.8862 -0.658681 -0.94552
Spine1  5.1014 -0.019642 -4.36845
HEad  -11.484 -10.3858 -1.78388
LeftShoulder1  -0.0933272 3.7542 -31.2168
LeftArm  -7.75921 -4.44378 -40.9964
LeftForeArm  29.817 -1.12638 -6.59814
LeftHand  -0.0285282 5.16312 0.178487
RightShoulder  -0.396011 -4.81823 23.1881
RightArm  -3.68794 -1.70791 43.0655
RightForeArm  9.09904 19.4286 3.27267
RightHand  -0.357358 3.64464 -4.84741
LeftUpLeg  -7.29711 8.61857 2.19696
LeftLeg  20.6737 3.44763 1.77514
LeftFoot  -8.71345 0.137005 -3.70778
LeftToes  -1.03319e-009 7.52634e-011 -3.26162e-012
62
root  29.5671 38.5692 11.6673 -17.9664 -71.7641 13.6174
RightUpLeg  -3.17237 -10.5357 -25.0245
RightLeg  24.3201 -11.212 -5.53004
RightFoot  7.48107 -0.9836 6.19951
RightToes  -1.33073e-015 0 -3.6325e-017
Spine  11.838 -0.574411 -1.24024
Spine1  5.402 0.0921988 -4.82826
HEad  -11.6743 -11.416 -1.70701
LeftShoulder1  -0.0347686 3.5991 -30.3748
LeftArm  -8.53074 -8.80179 -41.6994
LeftForeArm  29.8666 -2.63703 -6.26199
LeftHand  -0.0270118 4.7889 0.099217
RightShoulder  -0.39056 -4.80054 23.1534
RightArm  -2.55951 -1.32859 43.9212
RightForeArm  8.64145 18.6591 3.16739
RightHand  -0.360287 3.99631 -4.72124
LeftUpLeg  -6.50026 8.14689 0.920546
LeftLeg  20.4816 3.63225 1.81961
LeftFoot  -9.49164 0.10411 -2.94355
LeftToes  -1.03319e-009 7.52634e-011 -3.26162e-012
63
root  29.5328 38.6354 12.3272 -17.472 -71.0864 12.6398
RightUpLeg  -6.18746 -9.40058 -23.3635
RightLeg  30.4309 -3.6565 -2.5947
RightFoot  5.66694 -0.76848 5.42899
RightToes  -1.33073e-015 0 -3.6325e-017
Spine  12.038 -0.646016 -2.29399
Spine1  5.53945 -0.245129 -4.56964
HEad  -11.0615 -10.9743 -2.194
LeftShoulder1  -0.0119231 3.53739 -29.8512
LeftArm  -8.68104 -11.767 -41.7477
LeftForeArm  27.9764 -5.78795 -6.43569
LeftHand  -0.035083 4.46203 1.51172
RightShoulder  -0.412061 -4.86357 23.3765
RightArm  0.187357 -0.17909 45.2942
RightForeArm  8.57518 17.0136 3.06048
RightHand  -0.360806 3.83119 -4.80263
LeftUpLeg  -5.48722 7.6521 0.117981
LeftLeg  20.1639 3.52842 1.68544
LeftFoot  -10.1801 0.0867142 -2.52448
LeftToes  -1.03319e-009 7.52634e-011 -3.26162e-012
64
root  29.4466 38.7153 12.9033 -16.2694 -70.3512 11.2384
RightUpLeg  -9.07192 -7.66251 -20.6886
RightLeg  35.6957 -1.58693 -1.50969
RightFoot  3.53846 -0.830101 6.51888
RightToes  -1.33073e-015 0 -3.6325e-017
Spine  12.5354 -0.841183 -3.63159
Spine1  4.739 -0.836035 -3.88326
HEad  -10.8846 -11.7641 -1.6064
LeftShoulder1  0.00762755 3.48053 -29.3181
LeftArm  -7.8212 -13.6571 -41.3526
LeftForeArm  24.6746 -9.59417 -6.71881
LeftHand  -0.0495911 4.37985 3.33759
RightShoulder  -0.389945 -4.7784 23.6194
RightArm  1.97841 -0.277635 46.9493
RightForeArm  10.0559 16.6815 3.22487
RightHand  -0.352597 3.81874 -4.69689
LeftUpLeg  -4.64598 7.39443 -0.362486
LeftLeg  19.5697 3.10574 1.3545
LeftFoot  -10.6361 0.0750419 -1.83489
LeftToes  -1.03319e-009 7.52634e-011 -3.26162e-012
65
root  29.3073 38.8243 13.4869 -15.1879 -69.9698 10.182
RightUpLeg  -11.9197 -6.54522 -17.6261
RightLeg  39.3513 -1.91231 -1.95467
RightFoot  1.82877 -0.674346 5.93657
RightToes  -1.33073e-015 0 -3.6325e-017
Spine  12.483 -0.943026 -4.58104
Spine1  4.4686 -1.12591 -3.46379
HEad  -11.5617 -11.4821 -0.911556
LeftShoulder1  0.0911957 3.23832 -28.0745
LeftArm  -4.81782 -15.0724 -41.5942
LeftForeArm  20.3984 -13.8359 -6.259
LeftHand  -0.0713301 3.84693 4.06486
RightShoulder  -0.445857 -4.93138 24.3502
RightArm  3.14932 -0.919527 48.3831
RightForeArm  11.7063 17.2859 3.389
RightHand  -0.313218 3.47146 -4.33928
LeftUpLeg  -3.65171 7.35601 -0.788874
LeftLeg  18.4817 2.96547 1.02693
LeftFoot  -10.8764 0.0696655 -1.10512
LeftToes  -1.03319e-009 7.52634e-011 -3.26162e-012
66
root  29.1047 38.9297 14.0683 -14.3232 -69.7355 9.34967
RightUpLeg  -14.1912 -5.59638 -14.4048
RightLeg  40.7304 -2.65025 -2.71498
RightFoot  0.247928 -0.513079 5.06932
RightToes  -1.33073e-015 0 -3.6325e-017
Spine  12.3192 -0.964229 -5.71259
Spine1  4.41755 -1.4502 -2.27787
HEad  -12.7196 -11.4178 -0.538594
LeftShoulder1  0.0679795 3.30483 -28.0025
LeftArm  -0.79872 -16.4771 -41.092
LeftForeArm  15.8527 -18.2636 -5.19936
LeftHand  -0.10582 3.22673 4.89578
RightShoulder  -0.478258 -5.02261 24.647
RightArm  4.06944 -2.00703 49.9481
RightForeArm  11.6421 18.1954 3.58617
RightHand  -0.396401 3.79175 -5.27132
LeftUpLeg  -2.41444 7.20785 -1.20403
LeftLeg  17.1739 3.18959 0.815857
LeftFoot  -11.1085 0.0678375 -0.575682
LeftToes  -1.03319e-009 7.52634e-011 -3.26162e-012
67
root  28.8659 38.988 14.62 -13.5048 -69.1768 8.65236
RightUpLeg  -15.7544 -4.87652 -11.1764
RightLeg  39.6168 -3.07891 -2.99684
RightFoot  -1.56143 -0.429246 4.90295
RightToes  -1.33073e-015 0 -3.6325e-017
Spine  12.232 -1.17241 -7.20527
Spine1  4.34139 -2.07778 -0.709251
HEad  -13.9361 -11.6777 0.120541
LeftShoulder1  0.048506 3.36252 -28.1459
LeftArm  1.08398 -17.4445 -40.4441
LeftForeArm  14.2921 -22.1668 -4.32043
LeftHand  -0.145157 2.65749 5.78966
RightShoulder  -0.477654 -5.00905 24.8867
RightArm  4.76033 -3.34147 51.3196
RightForeArm  12.1883 19.3485 3.72103
RightHand  -0.326392 3.69239 -4.42825
LeftUpLeg  -1.50565 7.01753 -1.68721
LeftLeg  16.3063 2.969 0.53757
LeftFoot  -11.4988 0.0691776 -0.0150027
LeftToes  -1.03319e-009 7.52634e-011 -3.26162e-012
